<svg width="24" height="24" viewBox="0 0 24 24" fill="none" xmlns="http://www.w3.org/2000/svg">
<g clip-path="url(#clip0_344_3703)">
<path d="M9.21049 11.4315C12.3615 11.4315 14.925 8.86751 14.925 5.71589C14.925 2.56414 12.3615 0 9.21049 0C6.05907 0 3.49512 2.56414 3.49512 5.71583C3.49512 8.86751 6.05907 11.4315 9.21049 11.4315Z" fill="white"/>
<path d="M18.5037 16.6965H18.0143C18.0041 16.6965 17.9925 16.692 17.9849 16.6871V16.1777C17.9849 15.8142 17.713 15.5293 17.3659 15.5293H17.2829C16.9253 15.5293 16.6232 15.8262 16.6232 16.1777L16.623 16.6965H16.1045C15.753 16.6965 15.4561 16.9985 15.4561 17.3561V17.4391C15.4561 17.7863 15.7409 18.0582 16.1045 18.0582H16.6139C16.6187 18.0658 16.6232 18.0773 16.6232 18.0875V18.5769C16.6232 18.9284 16.9253 19.2253 17.2829 19.2253H17.3659C17.713 19.2253 17.9849 18.9405 17.9849 18.5769V18.0934C17.99 18.0814 18.0081 18.0632 18.0202 18.0582H18.5037C18.8672 18.0582 19.1521 17.7863 19.1521 17.4391V17.3561C19.1521 16.9985 18.8552 16.6965 18.5037 16.6965Z" fill="white"/>
<path d="M17.3263 12.0557C16.332 12.0557 15.401 12.3307 14.6042 12.8078C14.5919 12.8075 14.5795 12.8063 14.5671 12.8063H3.85254C3.15801 12.8063 2.50835 13.3417 2.37341 14.0252L1.38592 19.0316C1.25818 19.6786 1.57118 20.4959 2.09854 20.8921C2.26739 21.019 6.2689 24.0001 9.20978 24.0001C11.0029 24.0001 13.2152 22.8725 14.6846 21.9808C15.4635 22.4289 16.3651 22.6866 17.3263 22.6866C20.2573 22.6866 22.6418 20.3022 22.6418 17.3712C22.6418 14.4401 20.2574 12.0557 17.3263 12.0557ZM17.3263 20.7413C15.468 20.7413 13.9561 19.2295 13.9561 17.3711C13.9561 15.5128 15.4679 14.0009 17.3263 14.0009C19.1847 14.0009 20.6965 15.5128 20.6965 17.3711C20.6965 19.2295 19.1847 20.7413 17.3263 20.7413Z" fill="white"/>
</g>
<defs>
<clipPath id="clip0_344_3703">
<rect width="24" height="24" fill="white"/>
</clipPath>
</defs>
</svg>
