<svg width="9" height="16" viewBox="0 0 9 16" fill="none" xmlns="http://www.w3.org/2000/svg">
<path d="M1.04089 13.6593C0.72046 14.0113 0.720692 14.5754 1.04072 14.9278L1.04089 14.928C1.3711 15.2907 1.91528 15.2907 2.24548 14.928L2.24563 14.9278L7.96282 8.63414L7.963 8.63394C8.27904 8.28511 8.27929 7.71409 7.96202 7.36568L2.245 1.07219L2.24485 1.07203C1.91455 0.709215 1.37114 0.709496 1.04043 1.07184L1.04026 1.07203C0.719943 1.42387 0.719914 1.98802 1.04017 2.3399C1.0402 2.33993 1.04023 2.33996 1.04026 2.34L6.18166 7.99966M1.04089 13.6593L1.18878 13.7939L1.04074 13.6595L1.04089 13.6593ZM1.04089 13.6593L6.18166 7.99966M6.18166 7.99966L6.30382 8.13413L6.45186 7.99965L6.30381 7.86518L6.18166 7.99966Z" fill="#B8AFA7" stroke="#B8AFA7" stroke-width="0.4"/>
</svg>
