<svg width="9" height="16" viewBox="0 0 9 16" fill="none" xmlns="http://www.w3.org/2000/svg">
<path d="M7.95911 2.34069C8.27954 1.98872 8.27931 1.42463 7.95928 1.07221L7.95911 1.07203C7.62891 0.709325 7.08472 0.709325 6.75452 1.07203L6.75437 1.07219L1.03718 7.36586L1.037 7.36605C0.720966 7.71489 0.720708 8.28591 1.03798 8.63432L6.755 14.9278L6.75515 14.928C7.08545 15.2908 7.62886 15.2905 7.95957 14.9282L7.95974 14.928C8.28006 14.5761 8.28009 14.012 7.95983 13.6601C7.9598 13.6601 7.95977 13.66 7.95974 13.66L2.81834 8.00034M7.95911 2.34069L7.81122 2.20606L7.95926 2.34052L7.95911 2.34069ZM7.95911 2.34069L2.81834 8.00034M2.81834 8.00034L2.69618 7.86587L2.54814 8.00035L2.69619 8.13482L2.81834 8.00034Z" fill="#B8AFA7" stroke="#B8AFA7" stroke-width="0.4"/>
</svg>
