<svg width="166" height="84" viewBox="0 0 166 84" fill="none" xmlns="http://www.w3.org/2000/svg">
<g filter="url(#filter0_d_267_763)">
<path d="M1.71578 43.4107C12.6712 52.4416 25.4284 58.5171 39.0381 62.3832C52.9188 66.3259 67.4159 67.6506 81.7099 65.4249C109.134 61.1546 133.444 44.2367 147.152 20.1484C149.341 16.3028 151.225 12.2866 152.835 8.1669C152.96 7.84739 145.295 5.18058 144.976 5.99769C134.922 31.7083 113.525 51.8545 87.1517 60.1032C73.9061 64.246 59.6397 65.3642 45.9394 63.0792C45.2827 62.9694 44.5583 62.8392 43.9526 62.7184C43.5543 62.6391 43.1571 62.5545 42.76 62.4699C42.8191 62.4826 41.5217 62.193 42.1266 62.3335C41.7319 62.242 41.3383 62.1452 40.9449 62.0484C40.9062 62.0388 39.617 61.7042 40.4253 61.9184C40.0342 61.8148 39.6447 61.7059 39.2551 61.5972C38.778 61.4612 38.7365 61.4498 39.1307 61.563C38.8724 61.4863 38.6146 61.4087 38.3569 61.3302C37.3777 61.0332 36.0176 60.5769 34.7165 60.0926C33.1557 59.5118 31.6168 58.8787 30.0949 58.203C23.9717 55.4844 18.1965 52.039 12.8299 48.0341C11.647 47.1512 10.4912 46.2323 9.35239 45.2933C8.19758 44.3413 5.99295 44.0295 4.59384 43.6847C3.80776 43.4911 3.0031 43.2984 2.1954 43.2172C2.17144 43.2147 1.33551 43.0973 1.71578 43.4107Z" fill="#FFC06B"/>
<path d="M149.875 38.383C151.589 35.6717 152.668 32.4585 153.566 29.4068C155.973 21.2201 156.415 12.5358 155.567 4.07754C155.498 3.39108 152.219 2.73062 151.746 2.59996C150.82 2.34447 149.882 2.11043 148.935 1.94808C148.624 1.89489 148.028 1.73151 147.707 1.90834C143.706 4.11574 139.515 6.01984 135.295 7.76703C127.818 10.8636 119.683 13.6645 111.508 13.7633C110.948 13.7701 111.92 14.2219 111.821 14.1755C112.556 14.5199 113.346 14.7676 114.119 15.0042C115.654 15.4736 117.402 16.0835 119.03 16.0639C127.23 15.9646 135.322 13.1323 142.834 10.068C147.167 8.30054 151.466 6.33941 155.567 4.07754C152.947 3.35448 150.327 2.63141 147.707 1.90834C148.557 10.3916 148.077 19.0234 145.706 27.2376C144.825 30.2886 143.726 33.5078 142.015 36.2138C141.855 36.4662 145.637 37.6362 145.836 37.6914C146.258 37.8078 149.531 38.9257 149.875 38.383Z" fill="#FFC06B"/>
</g>
<defs>
<filter id="filter0_d_267_763" x="-2.38281" y="1.82823" width="162.346" height="72.6738" filterUnits="userSpaceOnUse" color-interpolation-filters="sRGB">
<feFlood flood-opacity="0" result="BackgroundImageFix"/>
<feColorMatrix in="SourceAlpha" type="matrix" values="0 0 0 0 0 0 0 0 0 0 0 0 0 0 0 0 0 0 127 0" result="hardAlpha"/>
<feOffset dy="4"/>
<feGaussianBlur stdDeviation="2"/>
<feComposite in2="hardAlpha" operator="out"/>
<feColorMatrix type="matrix" values="0 0 0 0 0 0 0 0 0 0 0 0 0 0 0 0 0 0 0.1 0"/>
<feBlend mode="normal" in2="BackgroundImageFix" result="effect1_dropShadow_267_763"/>
<feBlend mode="normal" in="SourceGraphic" in2="effect1_dropShadow_267_763" result="shape"/>
</filter>
</defs>
</svg>
