<svg width="19" height="20" viewBox="0 0 19 20" fill="none" xmlns="http://www.w3.org/2000/svg">
<path d="M8.47172 13.5565L8.47151 13.5567C8.24191 13.7769 8.23687 14.1392 8.46232 14.3646L9.18966 15.092C9.41045 15.3128 9.76767 15.3128 9.98846 15.092L14.4935 10.5869C14.7143 10.3661 14.7143 10.0089 14.4935 9.7881L9.98846 5.28302C9.76767 5.06223 9.41045 5.06223 9.18966 5.28302L8.46232 6.01037C8.23688 6.23581 8.24191 6.59809 8.47151 6.81832L8.47172 6.81852L10.8661 9.10391H5.19531C4.88481 9.10391 4.63125 9.35746 4.63125 9.66797V10.707C4.63125 11.0175 4.88481 11.2711 5.19531 11.2711H10.8661L8.47172 13.5565ZM0.178125 10.1875C0.178125 15.3371 4.35043 19.5094 9.5 19.5094C14.6496 19.5094 18.8219 15.3371 18.8219 10.1875C18.8219 5.03793 14.6496 0.865625 9.5 0.865625C4.35043 0.865625 0.178125 5.03793 0.178125 10.1875ZM16.8031 10.1875C16.8031 14.2225 13.535 17.4906 9.5 17.4906C5.465 17.4906 2.19687 14.2225 2.19687 10.1875C2.19687 6.1525 5.465 2.88437 9.5 2.88437C13.535 2.88437 16.8031 6.1525 16.8031 10.1875Z" fill="#4D81CC" stroke="#4D81CC" stroke-width="0.2375"/>
</svg>
