<svg width="20" height="20" viewBox="0 0 20 20" fill="none" xmlns="http://www.w3.org/2000/svg">
<g clip-path="url(#clip0_134_1065)">
<path d="M18.1283 1.25H13.2949C12.2943 1.25 11.4824 2.08984 11.4824 3.125V8.125C11.4824 9.16016 12.2943 10 13.2949 10H16.3158V12.5C16.3158 13.8789 15.232 15 13.8991 15H13.597C13.0948 15 12.6908 15.418 12.6908 15.9375V17.8125C12.6908 18.332 13.0948 18.75 13.597 18.75H13.8991C17.2371 18.75 19.9408 15.9531 19.9408 12.5V3.125C19.9408 2.08984 19.1289 1.25 18.1283 1.25ZM7.25326 1.25H2.41992C1.41927 1.25 0.607422 2.08984 0.607422 3.125V8.125C0.607422 9.16016 1.41927 10 2.41992 10H5.44076V12.5C5.44076 13.8789 4.35703 15 3.02409 15H2.72201C2.21979 15 1.81576 15.418 1.81576 15.9375V17.8125C1.81576 18.332 2.21979 18.75 2.72201 18.75H3.02409C6.36211 18.75 9.06576 15.9531 9.06576 12.5V3.125C9.06576 2.08984 8.25391 1.25 7.25326 1.25Z" fill="white"/>
</g>
<defs>
<clipPath id="clip0_134_1065">
<rect width="19.3333" height="20" fill="white" transform="translate(0.607422)"/>
</clipPath>
</defs>
</svg>
