<svg width="18" height="22" viewBox="0 0 18 22" fill="none" xmlns="http://www.w3.org/2000/svg">
<path d="M4.5 15.5H8.35714C8.71071 15.5 9 15.2107 9 14.8572V11C9 10.6464 8.71071 10.3572 8.35714 10.3572H4.5C4.14643 10.3572 3.85714 10.6464 3.85714 11V14.8572C3.85714 15.2107 4.14643 15.5 4.5 15.5ZM16.0714 3.28572H14.1429V1.35715C14.1429 1.00358 13.8536 0.714294 13.5 0.714294H12.2143C11.8607 0.714294 11.5714 1.00358 11.5714 1.35715V3.28572H6.42857V1.35715C6.42857 1.00358 6.13929 0.714294 5.78571 0.714294H4.5C4.14643 0.714294 3.85714 1.00358 3.85714 1.35715V3.28572H1.92857C0.863839 3.28572 0 4.14956 0 5.21429V19.3572C0 20.4219 0.863839 21.2857 1.92857 21.2857H16.0714C17.1362 21.2857 18 20.4219 18 19.3572V5.21429C18 4.14956 17.1362 3.28572 16.0714 3.28572ZM16.0714 19.1161C16.0714 19.2487 15.9629 19.3572 15.8304 19.3572H2.16964C2.03705 19.3572 1.92857 19.2487 1.92857 19.1161V7.14287H16.0714V19.1161Z" fill="#4BBD8C"/>
</svg>
