<svg width="18" height="20" viewBox="0 0 18 20" fill="none" xmlns="http://www.w3.org/2000/svg">
<path fill-rule="evenodd" clip-rule="evenodd" d="M13.1139 1.53794L13.1148 2.2251C15.6299 2.423 17.2913 4.14363 17.294 6.78231L17.3039 14.5059C17.3075 17.3828 15.5073 19.1529 12.6217 19.1575L5.57303 19.1667C2.70545 19.1704 0.882669 17.3581 0.879063 14.473L0.869147 6.84003C0.865541 4.18395 2.46836 2.46789 4.98347 2.23609L4.98257 1.54893C4.98167 1.1458 5.27915 0.842538 5.6758 0.842538C6.07245 0.841622 6.36994 1.14397 6.37084 1.5471L6.37174 2.18845L11.7265 2.18112L11.7256 1.53977C11.7247 1.13664 12.0222 0.834292 12.4188 0.833376C12.8065 0.83246 13.113 1.13481 13.1139 1.53794ZM2.25871 7.12317L15.907 7.10484V6.78417C15.8683 4.81432 14.8838 3.78084 13.117 3.62692L13.1179 4.3324C13.1179 4.72637 12.8123 5.03879 12.4246 5.03879C12.028 5.03971 11.7296 4.7282 11.7296 4.33423L11.7287 3.5921L6.37394 3.59943L6.37484 4.34064C6.37484 4.73553 6.07826 5.04704 5.68161 5.04704C5.28496 5.04795 4.98657 4.73736 4.98657 4.34247L4.98567 3.63699C3.2278 3.81382 2.25511 4.85097 2.25781 6.83822L2.25871 7.12317ZM12.0449 11.2873V11.2974C12.0539 11.7188 12.3965 12.0386 12.8121 12.0294C13.2177 12.0194 13.5414 11.6703 13.5323 11.2488C13.5134 10.8457 13.188 10.5168 12.7832 10.5177C12.3685 10.5269 12.044 10.8659 12.0449 11.2873ZM12.7893 15.4011C12.3746 15.392 12.0401 15.0447 12.0392 14.6233C12.0302 14.2018 12.3629 13.8527 12.7775 13.8426H12.7866C13.2102 13.8426 13.5537 14.1899 13.5537 14.6205C13.5546 15.0511 13.2121 15.4002 12.7893 15.4011ZM8.33007 11.302C8.3481 11.7234 8.69156 12.0524 9.10624 12.034C9.5119 12.0148 9.83553 11.6666 9.8175 11.2452C9.80759 10.8329 9.47404 10.5122 9.06838 10.5131C8.6537 10.5314 8.32917 10.8805 8.33007 11.302ZM9.11015 15.3599C8.69547 15.3782 8.35291 15.0493 8.33398 14.6278C8.33398 14.2064 8.65761 13.8582 9.07228 13.839C9.47795 13.8381 9.81239 14.1587 9.82141 14.5701C9.84034 14.9925 9.51581 15.3407 9.11015 15.3599ZM4.61718 11.3341C4.63521 11.7555 4.97867 12.0854 5.39335 12.0661C5.79901 12.0478 6.12264 11.6987 6.10371 11.2773C6.0947 10.865 5.76115 10.5443 5.35459 10.5452C4.93991 10.5636 4.61628 10.9126 4.61718 11.3341ZM5.39726 15.3644C4.98258 15.3837 4.64002 15.0538 4.62109 14.6324C4.62019 14.2109 4.94472 13.8618 5.3594 13.8435C5.76506 13.8426 6.09951 14.1633 6.10852 14.5756C6.12745 14.997 5.80382 15.3461 5.39726 15.3644Z" fill="#C4C4C4"/>
</svg>
