<svg width="20" height="20" viewBox="0 0 20 20" fill="none" xmlns="http://www.w3.org/2000/svg">
<path d="M10.0007 0.833313C4.94595 0.833313 0.833984 4.94528 0.833984 9.99998C0.833984 15.0547 4.94595 19.1666 10.0007 19.1666C15.0554 19.1666 19.1673 15.0547 19.1673 9.99998C19.1673 4.94528 15.0554 0.833313 10.0007 0.833313ZM10.0007 15.3472C9.57894 15.3472 9.23681 15.005 9.23681 14.5833C9.23681 14.1616 9.57894 13.8195 10.0007 13.8195C10.4224 13.8195 10.7645 14.1616 10.7645 14.5833C10.7645 15.005 10.4224 15.3472 10.0007 15.3472ZM11.2098 10.4904C10.9395 10.6149 10.7645 10.8876 10.7645 11.1848V11.5278C10.7645 11.9494 10.4231 12.2916 10.0007 12.2916C9.57824 12.2916 9.23681 11.9494 9.23681 11.5278V11.1848C9.23681 10.2933 9.76077 9.47602 10.5698 9.10242C11.3482 8.74421 11.9103 7.79308 11.9103 7.32632C11.9103 6.27378 11.054 5.41665 10.0007 5.41665C8.94727 5.41665 8.09098 6.27378 8.09098 7.32632C8.09098 7.74804 7.74941 8.0903 7.32699 8.0903C6.90458 8.0903 6.56315 7.74804 6.56315 7.32632C6.56315 5.43119 8.10538 3.88882 10.0007 3.88882C11.8959 3.88882 13.4382 5.43119 13.4382 7.32632C13.4382 8.35844 12.5428 9.87549 11.2098 10.4904Z" fill="#C4C4C4"/>
</svg>
