<svg width="32" height="32" viewBox="0 0 32 32" fill="none" xmlns="http://www.w3.org/2000/svg">
<path d="M18.9959 16.0002L30.5536 27.5584C30.5536 27.5585 30.5536 27.5585 30.5536 27.5585C31.3821 28.3867 31.3821 29.7261 30.5536 30.5543C30.1405 30.9674 29.5979 31.175 29.0557 31.175C28.5135 31.175 27.9709 30.9674 27.5578 30.5543L15.9998 18.996L4.44217 30.5543L4.31842 30.4305L4.44217 30.5543C4.02907 30.9674 3.48646 31.175 2.94429 31.175C2.40221 31.175 1.85923 30.9675 1.44644 30.5543C0.617852 29.7261 0.617852 28.3867 1.44644 27.5584L13.0041 16.0002L1.44644 4.442C0.617861 3.6138 0.617852 2.27437 1.44641 1.44616L18.9959 16.0002ZM18.9959 16.0002L30.5536 4.442C31.3821 3.61379 31.3821 2.27434 30.5536 1.44613C29.7254 0.617945 28.386 0.617955 27.5578 1.44616L15.9998 13.0044L4.44217 1.44616L4.44214 1.44613C3.61363 0.617981 2.27465 0.61793 1.44644 1.44613L18.9959 16.0002Z" fill="white" stroke="white" stroke-width="0.350004"/>
</svg>
