<svg width="20" height="20" viewBox="0 0 20 20" fill="none" xmlns="http://www.w3.org/2000/svg">
<path d="M11.8966 10.0001L18.7816 16.8856C18.7816 16.8856 18.7816 16.8856 18.7817 16.8856C19.3061 17.4099 19.3061 18.2578 18.7816 18.7821C18.5201 19.0436 18.1766 19.175 17.8334 19.175C17.4903 19.175 17.1467 19.0436 16.8852 18.7821L9.99989 11.8966L3.1148 18.7821L2.99106 18.6583L3.1148 18.7821C2.85331 19.0436 2.50972 19.175 2.16657 19.175C1.82351 19.175 1.4797 19.0436 1.21838 18.7821C0.693882 18.2578 0.693872 17.4099 1.21834 16.8856C1.21835 16.8856 1.21836 16.8856 1.21838 16.8856L8.10345 10.0001L1.21838 3.11471C1.21836 3.1147 1.21835 3.11469 1.21834 3.11468C0.693882 2.59042 0.693883 1.74246 1.21835 1.2182L11.8966 10.0001ZM11.8966 10.0001L18.7816 3.11471C19.3061 2.59044 19.3061 1.74243 18.7816 1.21817C18.2574 0.693932 17.4094 0.693942 16.8852 1.2182L9.99989 8.10364L3.1148 1.2182L3.11477 1.21817C2.59034 0.693967 1.74265 0.693916 1.21838 1.21817L11.8966 10.0001Z" fill="#2E2E2E" stroke="#2E2E2E" stroke-width="0.350004"/>
</svg>
