<svg width="20" height="20" viewBox="0 0 20 20" fill="none" xmlns="http://www.w3.org/2000/svg">
<circle cx="10" cy="10" r="10" fill="#4BBD8C"/>
<path d="M8.6253 11.8728L6.87601 10.1235C6.59935 9.84687 6.15081 9.84687 5.87416 10.1235C5.59746 10.4002 5.59757 10.8487 5.87408 11.1254L5.87416 11.1255L8.12337 13.3747C8.12351 13.3748 8.12366 13.375 8.12381 13.3751C8.26224 13.5142 8.4445 13.583 8.62475 13.583C8.80543 13.583 8.98678 13.514 9.12507 13.3767L9.12595 13.3759L14.6258 7.87597C14.9025 7.59932 14.9025 7.15078 14.6258 6.87413C14.3491 6.59743 13.9007 6.59754 13.624 6.87405L13.6239 6.87413L8.6253 11.8728Z" fill="white" stroke="white" stroke-width="0.666667"/>
</svg>
