<svg width="12" height="14" viewBox="0 0 12 14" fill="none" xmlns="http://www.w3.org/2000/svg">
<path d="M5.99935 0.333313C6.36754 0.333313 6.66602 0.63179 6.66602 0.99998V8.05717L8.19461 6.52858C8.45496 6.26823 8.87707 6.26823 9.13742 6.52858C9.39777 6.78892 9.39777 7.21103 9.13742 7.47138L6.47075 10.1381C6.2104 10.3984 5.78829 10.3984 5.52794 10.1381L2.86128 7.47138C2.60093 7.21103 2.60093 6.78892 2.86128 6.52858C3.12163 6.26823 3.54374 6.26823 3.80409 6.52858L5.33268 8.05717V0.99998C5.33268 0.63179 5.63116 0.333313 5.99935 0.333313ZM1.33268 10.3333C1.70087 10.3333 1.99935 10.6318 1.99935 11V12.3333H9.99935V11C9.99935 10.6318 10.2978 10.3333 10.666 10.3333C11.0342 10.3333 11.3327 10.6318 11.3327 11V12.3333C11.3327 13.0697 10.7357 13.6666 9.99935 13.6666H1.99935C1.26297 13.6666 0.666016 13.0697 0.666016 12.3333V11C0.666016 10.6318 0.964492 10.3333 1.33268 10.3333Z" fill="white"/>
</svg>
