<svg width="17" height="17" viewBox="0 0 17 17" fill="none" xmlns="http://www.w3.org/2000/svg">
<path d="M11.8936 0.262062C12.2431 -0.0873541 12.8096 -0.0873541 13.159 0.262062L16.7379 3.84101C17.0874 4.19043 17.0874 4.75694 16.7379 5.10636L5.10636 16.7379C4.93856 16.9057 4.71098 17 4.47368 17H0.894737C0.400587 17 0 16.5994 0 16.1053V12.5263C0 12.289 0.0942666 12.0614 0.262062 11.8936L9.20924 2.94646L11.8936 0.262062ZM9.8421 4.8443L1.78947 12.8969V15.2105H4.10307L12.1557 7.15789L9.8421 4.8443ZM13.4211 5.89255L14.8399 4.47368L12.5263 2.16009L11.1075 3.57895L13.4211 5.89255Z" fill="#70A4EE"/>
</svg>
