<svg width="22" height="17" viewBox="0 0 22 17" fill="none" xmlns="http://www.w3.org/2000/svg">
<path d="M21 6.10352e-05H1C0.447733 6.10352e-05 0 0.456749 0 1.02006V15.9801C0 16.5434 0.447733 17.0001 1 17.0001H21C21.5523 17.0001 22 16.5434 22 15.9801V1.02006C22 0.456749 21.5523 6.10352e-05 21 6.10352e-05ZM2 3.25379L7.80693 8.38725L2 13.6961V3.25379ZM11 8.51026L3.6808 2.04006H18.3192L11 8.51026ZM9.33047 9.73392L10.3451 10.6308C10.533 10.797 10.7665 10.8801 11 10.8801C11.2335 10.8801 11.467 10.797 11.6549 10.6308L12.6696 9.73392L18.3861 14.9601H3.61393L9.33047 9.73392ZM14.193 8.38725L20 3.25386V13.6961L14.193 8.38725Z" fill="#A0A0AE"/>
</svg>
