<svg width="18" height="18" viewBox="0 0 18 18" fill="none" xmlns="http://www.w3.org/2000/svg">
<path d="M6.1875 7.59381H11.8125C12.1233 7.59381 12.375 7.3421 12.375 7.03132V6.46882C12.375 6.15804 12.1233 5.90632 11.8125 5.90632H6.1875C5.87672 5.90632 5.625 6.15804 5.625 6.46882V7.03132C5.625 7.3421 5.87672 7.59381 6.1875 7.59381ZM5.625 10.4063C5.625 10.7171 5.87672 10.9688 6.1875 10.9688H11.8125C12.1233 10.9688 12.375 10.7171 12.375 10.4063V9.8438C12.375 9.53302 12.1233 9.2813 11.8125 9.2813H6.1875C5.87672 9.2813 5.625 9.53302 5.625 9.8438V10.4063ZM9 14.6647C8.42273 14.6647 7.84547 14.4869 7.35258 14.1307L0 8.81935V16.3125C0 17.2445 0.755508 18 1.6875 18H16.3125C17.2445 18 18 17.2445 18 16.3125V8.81935L10.6474 14.1307C10.1545 14.4865 9.57727 14.6647 9 14.6647ZM17.3535 5.72878C17.0423 5.4848 16.7474 5.25523 16.3125 4.92688V3.37509C16.3125 2.4431 15.557 1.6876 14.625 1.6876H11.8986C11.7918 1.61026 11.6923 1.53783 11.5808 1.45697C10.9898 1.02561 9.81563 -0.0121961 9 0.000108469C8.18437 -0.0121961 7.01051 1.02561 6.41918 1.45697C6.30773 1.53783 6.20824 1.61026 6.10137 1.6876H3.375C2.44301 1.6876 1.6875 2.4431 1.6875 3.37509V4.92688C1.25262 5.25488 0.957656 5.4848 0.646523 5.72878C0.445134 5.88661 0.282275 6.08817 0.170267 6.31821C0.0582584 6.54826 3.46572e-05 6.80076 0 7.05663L0 7.43104L3.375 9.86911V3.37509H14.625V9.86911L18 7.43104V7.05663C18 6.53843 17.7616 6.0487 17.3535 5.72878Z" fill="#70A4EE"/>
</svg>
