<svg width="21" height="18" viewBox="0 0 21 18" fill="none" xmlns="http://www.w3.org/2000/svg">
<path d="M20.324 8.50711L18.2903 6.70487V1.6863C18.2903 1.5371 18.2317 1.39402 18.1276 1.28852C18.0234 1.18302 17.8821 1.12375 17.7347 1.12375H14.3986C14.2513 1.12375 14.11 1.18302 14.0058 1.28852C13.9016 1.39402 13.8431 1.5371 13.8431 1.6863V2.76602L10.8729 0.139307C10.7716 0.0495034 10.6416 0 10.5069 0C10.3723 0 10.2423 0.0495034 10.141 0.139307L0.689931 8.50711C0.576757 8.61876 0.508994 8.76928 0.5 8.92902C0.5 9.07821 0.558532 9.2213 0.662718 9.32679C0.766905 9.43229 0.908213 9.49156 1.05556 9.49156C1.18904 9.48489 1.31718 9.43635 1.42222 9.35268L2.72361 8.19842V16.3124C2.72453 16.7597 2.90042 17.1884 3.21278 17.5047C3.52514 17.821 3.94853 17.9991 4.39028 18H16.6226C17.0643 17.999 17.4876 17.8208 17.8 17.5046C18.1123 17.1883 18.2882 16.7596 18.2892 16.3124V8.19912L19.5917 9.35092C19.6942 9.42798 19.8169 9.47263 19.9444 9.47925C20.0918 9.47925 20.2331 9.41999 20.3373 9.31449C20.4415 9.20899 20.5 9.06591 20.5 8.91671C20.4916 8.76324 20.4292 8.6179 20.324 8.50711ZM6.60139 16.8749C6.60249 16.129 6.89574 15.4139 7.41681 14.8866C7.93788 14.3594 8.64423 14.0629 9.3809 14.0622H11.6031C12.3399 14.0628 13.0463 14.3592 13.5674 14.8865C14.0886 15.4138 14.3819 16.1289 14.383 16.8749H6.60139ZM17.1785 16.3124C17.1785 16.4616 17.1199 16.6047 17.0158 16.7102C16.9116 16.8156 16.7703 16.8749 16.6229 16.8749H15.4965C15.4949 15.8306 15.0842 14.8295 14.3547 14.0913C13.6251 13.3531 12.6362 12.9381 11.6049 12.9371H9.38264C8.351 12.9376 7.36168 13.3525 6.63181 14.0907C5.90194 14.829 5.49115 15.8303 5.48958 16.8749H4.39167C4.24432 16.8749 4.10302 16.8156 3.99883 16.7102C3.89464 16.6047 3.83611 16.4616 3.83611 16.3124V7.21467L10.5073 1.30799L17.1788 7.21467L17.1785 16.3124ZM17.1785 5.71972L14.9563 3.75082V2.24884H17.1785V5.71972ZM7.71319 8.99934C7.71278 9.55614 7.87547 10.1006 8.18067 10.5637C8.48588 11.0269 8.91989 11.388 9.4278 11.6014C9.93572 11.8148 10.4947 11.8708 11.0341 11.7624C11.5735 11.6541 12.069 11.3861 12.458 10.9926C12.847 10.599 13.1119 10.0974 13.2193 9.55136C13.3268 9.00529 13.2719 8.43921 13.0615 7.92475C12.8512 7.41028 12.4949 6.97055 12.0377 6.66116C11.5805 6.35177 11.0429 6.18663 10.4931 6.18663C9.75635 6.18728 9.04997 6.48376 8.52884 7.01104C8.00772 7.53833 7.71439 8.25336 7.71319 8.99934ZM12.1608 8.99934C12.1608 9.33312 12.063 9.6594 11.8799 9.93693C11.6967 10.2145 11.4364 10.4308 11.1319 10.5585C10.8274 10.6862 10.4922 10.7197 10.1689 10.6545C9.84565 10.5894 9.54867 10.4287 9.31559 10.1927C9.0825 9.95665 8.92376 9.65594 8.85946 9.32858C8.79515 9.00121 8.82815 8.66188 8.9543 8.35351C9.08044 8.04514 9.29407 7.78157 9.56815 7.59613C9.84223 7.41069 10.1645 7.31171 10.4941 7.31171C10.9359 7.31236 11.3595 7.49037 11.6719 7.80672C11.9843 8.12307 12.1601 8.55195 12.1608 8.99934Z" fill="#32313B"/>
</svg>
