<svg width="1440" height="8" viewBox="0 0 1440 8" fill="none" xmlns="http://www.w3.org/2000/svg">
<circle cx="168" cy="4" r="4" fill="#FFC06B"/>
<circle cx="216" cy="4" r="4" fill="#4BBD8C"/>
<circle cx="264" cy="4" r="4" fill="#70A4EE"/>
<circle cx="312" cy="4" r="4" fill="#B9D06D"/>
<circle cx="360" cy="4" r="4" fill="#F290BA"/>
<circle cx="408" cy="4" r="4" fill="#8578E6"/>
<circle cx="456" cy="4" r="4" fill="#FFC06B"/>
<circle cx="504" cy="4" r="4" fill="#4BBD8C"/>
<circle cx="552" cy="4" r="4" fill="#70A4EE"/>
<circle cx="600" cy="4" r="4" fill="#B9D06D"/>
<circle cx="648" cy="4" r="4" fill="#F290BA"/>
<circle cx="696" cy="4" r="4" fill="#8578E6"/>
<circle cx="744" cy="4" r="4" fill="#FFC06B"/>
<circle cx="792" cy="4" r="4" fill="#4BBD8C"/>
<circle cx="840" cy="4" r="4" fill="#70A4EE"/>
<circle cx="888" cy="4" r="4" fill="#B9D06D"/>
<circle cx="936" cy="4" r="4" fill="#F290BA"/>
<circle cx="984" cy="4" r="4" fill="#8578E6"/>
<circle cx="1032" cy="4" r="4" fill="#FFC06B"/>
<circle cx="1080" cy="4" r="4" fill="#4BBD8C"/>
<circle cx="1128" cy="4" r="4" fill="#70A4EE"/>
<circle cx="1176" cy="4" r="4" fill="#B9D06D"/>
<circle cx="1224" cy="4" r="4" fill="#F290BA"/>
<circle cx="1272" cy="4" r="4" fill="#8578E6"/>
</svg>
