<svg width="168" height="69" viewBox="0 0 168 69" fill="none" xmlns="http://www.w3.org/2000/svg">
<g clip-path="url(#clip0_53_904)">
<path fill-rule="evenodd" clip-rule="evenodd" d="M24.1146 6.66849C20.9272 4.84151 17.4972 3.96652 13.8243 4.04335C13.083 3.85418 12.3287 4.30176 12.1395 5.04311L12.0278 5.48101L25.0026 8.79101L25.1143 8.35327C25.3035 7.61193 24.8559 6.8575 24.1146 6.66849Z" fill="#65656C"/>
<path fill-rule="evenodd" clip-rule="evenodd" d="M24.4195 8.40806L12.7232 5.42426C11.8807 5.20926 11.0233 5.71802 10.8083 6.56074L8.85376 14.2221L23.6015 17.9844L25.556 10.323C25.771 9.48045 25.2622 8.62305 24.4195 8.40806Z" fill="#FFC06B"/>
<path fill-rule="evenodd" clip-rule="evenodd" d="M7.22473 61.249L2.54077 63.6182L5.2052 54.0757L8.982 54.956L7.22473 61.249Z" fill="#FFC06B"/>
<path fill-rule="evenodd" clip-rule="evenodd" d="M1.19287 46.9187L3.99331 53.7519L4.06852 58.1668L7.82902 59.126L10.01 55.2869L15.7416 50.6301L1.19287 46.9187Z" fill="#65656C"/>
<path fill-rule="evenodd" clip-rule="evenodd" d="M21.0712 31.6383L24.3541 18.77C24.6151 17.7468 23.9972 16.7059 22.9742 16.4449L10.1424 13.1714C9.1192 12.9104 8.07827 13.5281 7.81728 14.5512L7.0564 17.5334C9.91462 22.2146 14.365 27.0481 21.0712 31.6383Z" fill="#85D7B5"/>
<path fill-rule="evenodd" clip-rule="evenodd" d="M0.0597933 44.9588C-0.201204 45.982 0.416506 47.0229 1.43967 47.2839L14.2715 50.5576C15.2945 50.8186 16.3356 50.2007 16.5966 49.1777L18.3863 42.1619C11.7567 41.2001 6.44866 39.3224 2.06594 37.095L0.0597933 44.9588Z" fill="#FCB3D2"/>
<path fill-rule="evenodd" clip-rule="evenodd" d="M7.05618 17.5334L2.06592 37.095C6.44848 39.3225 11.7566 41.2001 18.3861 42.1619L21.071 31.6383C14.3646 27.0482 9.9144 22.2145 7.05618 17.5334Z" fill="#70A4EE"/>
<path fill-rule="evenodd" clip-rule="evenodd" d="M143.003 4C118.762 11.0045 79.8493 13.8246 31.394 4L23.0813 43.1888C33.8957 48.6767 47.2209 51.0465 61.0055 51.8965C40.4466 52.7938 31.3783 53.1279 13.2354 56.5857L8.07031 64.0105C61.5233 51.6499 136.14 54.2487 168.187 65.914L148.303 17.0284L127.936 15.536C135.237 14.1179 141.333 11.5268 145.267 9.61588L143.003 4Z" fill="#FFC06B"/>
<path fill-rule="evenodd" clip-rule="evenodd" d="M43.7584 26.3106C44.3285 24.2598 45.782 23.0797 47.1636 23.5295C49.1315 24.1836 49.0608 25.9802 48.3242 28.1158C47.5465 30.3353 45.3074 38.4965 41.9989 37.2668C39.3186 36.2835 42.6185 30.454 43.7584 26.3106Z" fill="#32313B"/>
<path fill-rule="evenodd" clip-rule="evenodd" d="M48.6793 39.2699C48.5885 26.5653 59.7209 14.996 72.7785 14.9027C75.8763 14.8805 78.231 15.1773 78.2451 17.1379C78.2565 18.7455 76.6915 19.2273 74.9661 19.2396C63.6731 19.3203 53.4148 27.0013 53.5044 39.5098C53.5178 41.3921 55.1764 43.0272 57.1369 43.0131C60.4309 42.9896 62.2477 39.3296 62.9675 35.7953C63.3461 33.9103 64.6353 33.2344 65.5372 33.2279C67.3018 33.2153 68.1385 35.0526 67.8012 37.2507C67.3515 40.1559 63.7576 47.5539 57.0914 47.6017C52.6996 47.633 48.7161 44.4066 48.6793 39.2699Z" fill="#32313B"/>
<path fill-rule="evenodd" clip-rule="evenodd" d="M81.353 44.2116C84.3032 42.0604 86.7662 35.9861 86.7357 31.7257C86.6974 26.3794 82.099 25.8695 78.6843 27.3141C75.8524 28.5037 74.0946 28.0151 73.6243 26.5147C72.7693 23.7641 78.5153 21.2167 83.3232 21.8088C93.9419 23.1115 92.86 35.3577 88.855 41.8609C85.2625 47.6924 81.3832 48.4302 80.5853 47.8512C79.4518 47.0239 79.691 45.4348 81.353 44.2116Z" fill="#32313B"/>
<path fill-rule="evenodd" clip-rule="evenodd" d="M93.0649 40.7447C93.0282 35.5654 97.6725 30.8539 101.427 30.1589C105.223 29.4632 109.042 32.0256 108.153 36.1673C107.749 38.0916 103.437 42.55 101.252 40.7279C99.9072 39.6096 104.391 35.7765 103.213 34.6154C102.203 33.6199 97.5037 36.4523 97.5371 41.1303C97.55 42.9263 98.8946 44.0443 101.275 44.0274C105.202 43.9993 114.148 39.2153 114.081 29.8176C114.052 25.7663 112.116 23.8168 109.649 23.375C106.805 22.8522 103.137 24.0063 100.394 25.8639C98.9391 26.8766 97.437 27.1383 96.5955 26.267C95.6277 25.2713 96.2823 23.3453 98.6507 21.6157C101.31 19.6754 104.813 18.8148 108.906 18.7437C115.964 18.6098 119.31 25.1019 118.853 31.2873C118.128 40.8159 109.329 48.69 101.309 48.7473C97.1325 48.7772 93.1089 46.8843 93.0649 40.7447Z" fill="#32313B"/>
<path fill-rule="evenodd" clip-rule="evenodd" d="M119.002 46.4486C120.324 44.3508 123.91 37.6837 126.373 37.4152C128.752 37.1476 129.28 40.8615 132.329 40.9233C135.086 40.987 140.326 37.6498 140.012 34.6861C139.743 32.182 136.977 30.7818 134.471 30.7996C130.753 30.8262 127.591 32.5196 124.794 32.8319C123.167 33.0107 121.831 33.1037 121.071 32.0649C120.185 30.8181 120.929 29.6434 122.468 28.7134C124.048 27.7414 130.091 25.8603 135.106 26.1168C139.702 26.3345 145.24 29.8035 145.027 34.9847C144.813 40.1238 137.039 45.3588 131.858 45.0616C129.476 44.9535 127.713 43.7549 126.704 42.8011C125.505 44.5642 123.19 48.0057 122.573 49.2216C121.749 50.8982 120.203 50.7839 119.198 50.4152C118.36 50.0872 117.722 48.5045 119.002 46.4486Z" fill="#32313B"/>
</g>
<defs>
<clipPath id="clip0_53_904">
<rect width="168" height="69" fill="white"/>
</clipPath>
</defs>
</svg>
