<svg width="168" height="62" viewBox="0 0 168 62" fill="none" xmlns="http://www.w3.org/2000/svg">
<path fill-rule="evenodd" clip-rule="evenodd" d="M24.1146 2.66849C20.9272 0.841512 17.4972 -0.033483 13.8243 0.0433474C13.083 -0.145823 12.3287 0.301762 12.1395 1.04311L12.0278 1.48101L25.0026 4.79101L25.1143 4.35327C25.3035 3.61193 24.8559 2.8575 24.1146 2.66849Z" fill="#FFC06B"/>
<path fill-rule="evenodd" clip-rule="evenodd" d="M24.4195 4.40818L12.7232 1.42438C11.8807 1.20939 11.0233 1.71815 10.8083 2.56086L8.85376 10.2223L23.6015 13.9845L25.556 6.32313C25.771 5.48058 25.2622 4.62317 24.4195 4.40818Z" fill="#32313B"/>
<path fill-rule="evenodd" clip-rule="evenodd" d="M7.22473 57.2489L2.54077 59.6181L5.2052 50.0756L8.982 50.9559L7.22473 57.2489Z" fill="#32313B"/>
<path fill-rule="evenodd" clip-rule="evenodd" d="M1.19287 42.9187L3.99331 49.7519L4.06852 54.1668L7.82902 55.126L10.01 51.2869L15.7416 46.6301L1.19287 42.9187Z" fill="#FFC06B"/>
<path fill-rule="evenodd" clip-rule="evenodd" d="M21.0712 27.6383L24.3541 14.77C24.6151 13.7468 23.9972 12.7059 22.9742 12.4449L10.1424 9.17137C9.1192 8.91037 8.07827 9.52808 7.81728 10.5512L7.0564 13.5334C9.91462 18.2146 14.365 23.0481 21.0712 27.6383Z" fill="#4BBD8C"/>
<path fill-rule="evenodd" clip-rule="evenodd" d="M0.0597933 40.9589C-0.201204 41.9821 0.416506 43.023 1.43967 43.284L14.2715 46.5577C15.2945 46.8187 16.3356 46.2008 16.5966 45.1778L18.3863 38.162C11.7567 37.2002 6.44866 35.3225 2.06594 33.0951L0.0597933 40.9589Z" fill="#FCB3D2"/>
<path fill-rule="evenodd" clip-rule="evenodd" d="M7.05618 13.5333L2.06592 33.0949C6.44848 35.3223 11.7566 37.2 18.3861 38.1618L21.071 27.6382C14.3646 23.048 9.9144 18.2143 7.05618 13.5333Z" fill="#70A4EE"/>
<path fill-rule="evenodd" clip-rule="evenodd" d="M143.003 0C118.762 7.00448 79.8493 9.82461 31.394 0L23.0813 39.1888C33.8957 44.6767 47.2209 47.0465 61.0055 47.8965C40.4466 48.7938 31.3783 49.1279 13.2354 52.5857L8.07031 60.0105C61.5233 47.6499 136.14 50.2487 168.187 61.914L148.303 13.0284L127.936 11.536C135.237 10.1179 141.333 7.5268 145.267 5.61588L143.003 0Z" fill="#32313B"/>
<path fill-rule="evenodd" clip-rule="evenodd" d="M43.7584 22.3107C44.3285 20.2599 45.782 19.0798 47.1636 19.5297C49.1315 20.1837 49.0608 21.9803 48.3242 24.1159C47.5465 26.3354 45.3074 34.4966 41.9989 33.267C39.3186 32.2837 42.6185 26.4541 43.7584 22.3107Z" fill="#FFC06B"/>
<path fill-rule="evenodd" clip-rule="evenodd" d="M48.6793 35.2698C48.5885 22.5652 59.7209 10.9959 72.7785 10.9026C75.8763 10.8803 78.231 11.1772 78.2451 13.1378C78.2565 14.7454 76.6915 15.2272 74.9661 15.2395C63.6731 15.3202 53.4148 23.0011 53.5044 35.5096C53.5178 37.392 55.1764 39.0271 57.1369 39.013C60.4309 38.9894 62.2477 35.3295 62.9675 31.7951C63.3461 29.9102 64.6353 29.2342 65.5372 29.2278C67.3018 29.2152 68.1385 31.0525 67.8012 33.2506C67.3515 36.1558 63.7576 43.5538 57.0914 43.6016C52.6996 43.6328 48.7161 40.4064 48.6793 35.2698Z" fill="#FFC06B"/>
<path fill-rule="evenodd" clip-rule="evenodd" d="M81.353 40.2116C84.3032 38.0604 86.7662 31.9861 86.7357 27.7257C86.6974 22.3794 82.099 21.8695 78.6843 23.3141C75.8524 24.5037 74.0946 24.0151 73.6243 22.5147C72.7693 19.7641 78.5153 17.2167 83.3232 17.8088C93.9419 19.1115 92.86 31.3577 88.855 37.8609C85.2625 43.6924 81.3832 44.4302 80.5853 43.8512C79.4518 43.0239 79.691 41.4348 81.353 40.2116Z" fill="#FFC06B"/>
<path fill-rule="evenodd" clip-rule="evenodd" d="M93.0649 36.7448C93.0282 31.5655 97.6725 26.854 101.427 26.159C105.223 25.4633 109.042 28.0257 108.153 32.1674C107.749 34.0917 103.437 38.5501 101.252 36.728C99.9072 35.6098 104.391 31.7766 103.213 30.6155C102.203 29.6201 97.5037 32.4525 97.5371 37.1304C97.55 38.9264 98.8946 40.0445 101.275 40.0275C105.202 39.9994 114.148 35.2155 114.081 25.8178C114.052 21.7664 112.116 19.8169 109.649 19.3752C106.805 18.8524 103.137 20.0064 100.394 21.8641C98.9391 22.8767 97.437 23.1384 96.5955 22.2671C95.6277 21.2714 96.2823 19.3455 98.6507 17.6158C101.31 15.6755 104.813 14.8149 108.906 14.7439C115.964 14.6099 119.31 21.1021 118.853 27.2874C118.128 36.816 109.329 44.6901 101.309 44.7474C97.1325 44.7773 93.1089 42.8845 93.0649 36.7448Z" fill="#FFC06B"/>
<path fill-rule="evenodd" clip-rule="evenodd" d="M119.002 42.4487C120.324 40.3509 123.91 33.6838 126.373 33.4154C128.752 33.1477 129.28 36.8616 132.329 36.9234C135.086 36.9872 140.326 33.6499 140.012 30.6863C139.743 28.1822 136.977 26.7819 134.471 26.7997C130.753 26.8263 127.591 28.5197 124.794 28.832C123.167 29.0108 121.831 29.1038 121.071 28.065C120.185 26.8183 120.929 25.6435 122.468 24.7135C124.048 23.7415 130.091 21.8604 135.106 22.1169C139.702 22.3347 145.24 25.8037 145.027 30.9849C144.813 36.1239 137.039 41.3589 131.858 41.0618C129.476 40.9536 127.713 39.755 126.704 38.8012C125.505 40.5643 123.19 44.0058 122.573 45.2217C121.749 46.8983 120.203 46.784 119.198 46.4153C118.36 46.0874 117.722 44.5046 119.002 42.4487Z" fill="#FFC06B"/>
</svg>
