<svg width="247" height="314" viewBox="0 0 247 314" fill="none" xmlns="http://www.w3.org/2000/svg">
<path opacity="0.3" d="M220.227 232.315L168.932 206.445C164.094 204.002 161.087 199.095 161.087 193.635V175.321C162.317 173.805 163.611 172.077 164.948 170.17C171.601 160.691 176.933 150.139 180.809 138.759C188.386 135.254 193.304 127.698 193.304 119.167V97.5C193.304 92.2837 191.371 87.23 187.935 83.2812V54.47C188.235 51.4908 189.417 33.7567 176.702 19.1262C165.673 6.435 147.776 0 123.5 0C99.2242 0 81.3274 6.435 70.2983 19.1208C57.5832 33.7512 58.7645 51.4908 59.0652 54.47V83.2812C55.6287 87.23 53.6956 92.2837 53.6956 97.5V119.167C53.6956 125.759 56.665 131.907 61.7339 136.007C66.6524 155.653 76.9459 170.457 80.5435 175.208V193.131C80.5435 198.375 77.7083 203.185 73.1496 205.698L25.2477 232.055C9.67058 240.63 0 257.064 0 274.961V292.5C0 318.207 80.7851 325 123.5 325C166.215 325 247 318.207 247 292.5V276.017C247 257.395 236.739 240.646 220.227 232.315Z" fill="#DFDFDF"/>
</svg>
