<svg width="32" height="32" viewBox="0 0 32 32" fill="none" xmlns="http://www.w3.org/2000/svg">
<g clip-path="url(#clip0_201_566)">
<path d="M20.3276 23.8852H11.6738V8.3331H20.3277L20.3276 23.8852Z" fill="#FF5F00"/>
<path d="M12.224 16.1093C12.224 12.9546 13.7011 10.1444 16.0013 8.33338C14.2602 6.9605 12.1067 6.21539 9.88944 6.21867C4.42752 6.21867 0 10.6468 0 16.1093C0 21.5719 4.42752 26 9.88944 26C12.1068 26.0033 14.2603 25.2582 16.0014 23.8853C13.7014 22.0746 12.224 19.2642 12.224 16.1093Z" fill="#EB001B"/>
<path d="M32.0041 16.1094C32.0041 21.5719 27.5766 26 22.1147 26C19.8972 26.0033 17.7434 25.2582 16.002 23.8853C18.3027 22.0743 19.7799 19.2642 19.7799 16.1094C19.7799 12.9545 18.3027 10.1444 16.002 8.33338C17.7434 6.96054 19.8971 6.21545 22.1146 6.21867C27.5765 6.21867 32.004 10.6468 32.004 16.1094" fill="#F79E1B"/>
</g>
<defs>
<clipPath id="clip0_201_566">
<rect width="32" height="32" fill="white"/>
</clipPath>
</defs>
</svg>
