<svg width="28" height="23" viewBox="0 0 28 23" fill="none" xmlns="http://www.w3.org/2000/svg">
<path d="M26.5 0.875H1.5C0.809667 0.875 0.25 1.44586 0.25 2.15V20.85C0.25 21.5541 0.809667 22.125 1.5 22.125H26.5C27.1903 22.125 27.75 21.5541 27.75 20.85V2.15C27.75 1.44586 27.1903 0.875 26.5 0.875ZM2.75 4.94216L10.0087 11.359L2.75 17.995V4.94216ZM14 11.5127L4.851 3.425H23.149L14 11.5127ZM11.9131 13.0423L13.1813 14.1635C13.4163 14.3711 13.7081 14.475 14 14.475C14.2919 14.475 14.5838 14.3711 14.8187 14.1635L16.087 13.0423L23.2326 19.575H4.76742L11.9131 13.0423ZM17.9913 11.359L25.25 4.94225V17.9951L17.9913 11.359Z" fill="#4BBD8C"/>
</svg>
