<svg width="17" height="16" viewBox="0 0 17 16" fill="none" xmlns="http://www.w3.org/2000/svg">
<g clip-path="url(#clip0_134_1088)">
<path d="M5.75504 5C6.20479 2.20937 7.26558 0.25 8.50008 0.25C9.73457 0.25 10.7954 2.20937 11.2451 5H5.75504ZM11.4777 8C11.4777 8.69375 11.4405 9.35938 11.3754 10H5.62787C5.56273 9.35938 5.52551 8.69375 5.52551 8C5.52551 7.30625 5.56273 6.64062 5.62787 6H11.3754C11.4405 6.64062 11.4777 7.30625 11.4777 8ZM1.4064 5C2.2935 2.87812 4.08941 1.2375 6.30715 0.575C5.55032 1.63125 5.02923 3.22187 4.75628 5H1.4064ZM10.6961 0.575C12.9107 1.2375 14.7098 2.87812 15.5937 5H12.2439C11.974 3.22187 11.4529 1.63125 10.6961 0.575ZM1.07452 6H4.63221C4.56707 6.65625 4.52985 7.32812 4.52985 8C4.52985 8.67188 4.56707 9.34375 4.63221 10H1.07762C0.907024 9.35938 0.81087 8.69375 0.81087 8C0.81087 7.30625 0.907023 6.64062 1.07452 6ZM12.4703 8C12.4703 7.32812 12.4331 6.65625 12.3679 6H15.9256C16.0931 6.64062 16.1924 7.30625 16.1924 8C16.1924 8.69375 16.0931 9.35938 15.9256 10H12.371C12.4331 9.34375 12.4703 8.67188 12.4703 8ZM11.2451 11C10.7954 13.7906 9.73457 15.75 8.50008 15.75C7.26558 15.75 6.20479 13.7906 5.75504 11H11.2451ZM6.30405 15.425C4.08941 14.7625 2.2904 13.1219 1.4033 11H4.75318C5.02613 12.7781 5.54722 14.3688 6.30405 15.425ZM15.5937 11C14.7067 13.1219 12.9107 14.7625 10.693 15.425C11.4498 14.3688 11.9709 12.7781 12.2439 11H15.5937Z" fill="#4BBD8C"/>
</g>
<defs>
<clipPath id="clip0_134_1088">
<rect width="16" height="16" fill="white" transform="matrix(-1 0 0 1 16.5 0)"/>
</clipPath>
</defs>
</svg>
