<svg width="79" height="22" viewBox="0 0 79 22" fill="none" xmlns="http://www.w3.org/2000/svg">
<path d="M60.9754 6.19257H56.7299C56.4802 6.19257 56.2304 6.4423 56.1056 6.69204L54.3574 17.6804C54.3574 17.9301 54.4823 18.055 54.732 18.055H56.9796C57.2294 18.055 57.3542 17.9301 57.3542 17.6804L57.8537 14.5587C57.8537 14.309 58.1034 14.0592 58.478 14.0592H59.8516C62.7235 14.0592 64.3468 12.6857 64.7214 9.93859C64.9711 8.81478 64.7214 7.81584 64.2219 7.19151C63.4727 6.56717 62.3489 6.19257 60.9754 6.19257ZM61.4749 10.3132C61.2251 11.8116 60.1013 11.8116 58.9775 11.8116H58.2283L58.7278 8.93965C58.7278 8.81478 58.8526 8.68992 59.1024 8.68992H59.3521C60.1013 8.68992 60.8505 8.68991 61.2251 9.18938C61.4749 9.31425 61.4749 9.68886 61.4749 10.3132Z" fill="#139AD6"/>
<path d="M30.3836 6.19257H26.1381C25.8884 6.19257 25.6386 6.4423 25.5138 6.69204L23.7656 17.6804C23.7656 17.9301 23.8905 18.055 24.1402 18.055H26.1381C26.3878 18.055 26.6376 17.8052 26.7624 17.5555L27.2619 14.5587C27.2619 14.309 27.5117 14.0592 27.8863 14.0592H29.2598C32.1317 14.0592 33.755 12.6857 34.1296 9.93859C34.3794 8.81478 34.1296 7.81584 33.6302 7.19151C32.881 6.56717 31.882 6.19257 30.3836 6.19257ZM30.8831 10.3132C30.6333 11.8116 29.5095 11.8116 28.3857 11.8116H27.7614L28.2609 8.93965C28.2609 8.81478 28.3857 8.68992 28.6355 8.68992H28.8852C29.6344 8.68992 30.3836 8.68991 30.7582 9.18938C30.8831 9.31425 31.0079 9.68886 30.8831 10.3132Z" fill="#263B80"/>
<path d="M43.2458 10.1883H41.2479C41.123 10.1883 40.8733 10.3132 40.8733 10.4381L40.7484 11.0624L40.6235 10.8127C40.1241 10.1883 39.25 9.9386 38.2511 9.9386C36.0034 9.9386 34.0056 11.6867 33.631 14.0592C33.3812 15.3079 33.7558 16.4317 34.3802 17.1809C35.0045 17.9301 35.8786 18.1799 37.0024 18.1799C38.8754 18.1799 39.8743 17.056 39.8743 17.056L39.7495 17.6804C39.7495 17.9301 39.8743 18.055 40.1241 18.055H41.9971C42.2468 18.055 42.4966 17.8053 42.6214 17.5555L43.7452 10.5629C43.6204 10.4381 43.3706 10.1883 43.2458 10.1883ZM40.3738 14.1841C40.1241 15.3079 39.25 16.182 38.0013 16.182C37.377 16.182 36.8775 15.9322 36.6278 15.6825C36.378 15.3079 36.2532 14.8084 36.2532 14.1841C36.378 13.0603 37.377 12.1862 38.5008 12.1862C39.1251 12.1862 39.4997 12.4359 39.8743 12.6857C40.2489 13.0603 40.3738 13.6846 40.3738 14.1841Z" fill="#263B80"/>
<path d="M73.7125 10.1883H71.7147C71.5898 10.1883 71.3401 10.3132 71.3401 10.4381L71.2152 11.0624L71.0903 10.8127C70.5909 10.1883 69.7168 9.9386 68.7179 9.9386C66.4702 9.9386 64.4724 11.6867 64.0978 14.0592C63.848 15.3079 64.2226 16.4317 64.847 17.1809C65.4713 17.9301 66.3454 18.1799 67.4692 18.1799C69.3422 18.1799 70.3411 17.056 70.3411 17.056L70.2163 17.6804C70.2163 17.9301 70.3411 18.055 70.5909 18.055H72.4639C72.7136 18.055 72.9633 17.8053 73.0882 17.5555L74.212 10.5629C74.0871 10.4381 73.9623 10.1883 73.7125 10.1883ZM70.8406 14.1841C70.5909 15.3079 69.7168 16.182 68.4681 16.182C67.8438 16.182 67.3443 15.9322 67.0946 15.6825C66.8448 15.3079 66.72 14.8084 66.72 14.1841C66.8448 13.0603 67.8438 12.1862 68.9676 12.1862C69.5919 12.1862 69.9665 12.4359 70.3411 12.6857C70.8406 13.0603 70.9655 13.6846 70.8406 14.1841Z" fill="#139AD6"/>
<path d="M54.1089 10.1884H51.9862C51.7365 10.1884 51.6116 10.3132 51.4867 10.4381L48.7396 14.6836L47.491 10.6878C47.3661 10.4381 47.2412 10.3132 46.8666 10.3132H44.8687C44.619 10.3132 44.4941 10.563 44.4941 10.8127L46.7418 17.4307L44.619 20.4275C44.4941 20.6772 44.619 21.0518 44.8687 21.0518H46.8666C47.1164 21.0518 47.2412 20.927 47.3661 20.8021L54.2338 10.9376C54.6084 10.563 54.3587 10.1884 54.1089 10.1884Z" fill="#263B80"/>
<path d="M76.086 6.56722L74.3379 17.8053C74.3379 18.055 74.4628 18.1799 74.7125 18.1799H76.4606C76.7104 18.1799 76.9601 17.9302 77.085 17.6804L78.8331 6.69208C78.8331 6.44235 78.7083 6.31748 78.4585 6.31748H76.4606C76.3358 6.19261 76.2109 6.31748 76.086 6.56722Z" fill="#139AD6"/>
<path d="M14.5258 2.44659C13.6517 1.44765 12.0284 0.948181 9.78081 0.948181H3.53744C3.16283 0.948181 2.78823 1.32278 2.66336 1.69738L0.166016 18.055C0.166016 18.4296 0.415751 18.6794 0.665485 18.6794H4.53638L5.53532 12.5609V12.8106C5.66018 12.436 6.03479 12.0614 6.40939 12.0614H8.2824C11.9036 12.0614 14.6506 10.563 15.5247 6.44235C15.5247 6.31748 15.5247 6.19261 15.5247 6.06774C15.3998 6.06774 15.3998 6.06774 15.5247 6.06774C15.6496 4.44447 15.3998 3.44553 14.5258 2.44659Z" fill="#263B80"/>
<path d="M15.4002 6.06775C15.4002 6.19262 15.4002 6.31749 15.4002 6.44235C14.5261 10.6878 11.779 12.0614 8.15787 12.0614H6.28486C5.91025 12.0614 5.53565 12.436 5.41078 12.8106L4.16211 20.4275C4.16211 20.6772 4.28698 20.927 4.66158 20.927H7.90813C8.28274 20.927 8.65734 20.6772 8.65734 20.3026V20.1778L9.28168 16.3069V16.0571C9.28168 15.6825 9.65628 15.4328 10.0309 15.4328H10.5304C13.652 15.4328 16.1494 14.1841 16.7737 10.4381C17.0235 8.9397 16.8986 7.56616 16.1494 6.69209C16.0245 6.44235 15.7748 6.19262 15.4002 6.06775Z" fill="#139AD6"/>
<path d="M14.5256 5.69314C14.4007 5.69314 14.2759 5.56828 14.151 5.56828C14.0261 5.56828 13.9013 5.56828 13.7764 5.44341C13.2769 5.31854 12.7775 5.31854 12.1531 5.31854H7.2833C7.15843 5.31854 7.03357 5.31854 6.9087 5.44341C6.65896 5.56828 6.5341 5.81801 6.5341 6.06775L5.53516 12.5609V12.8106C5.66002 12.436 6.03463 12.0614 6.40923 12.0614H8.28224C11.9034 12.0614 14.6505 10.563 15.5246 6.44235C15.5246 6.31748 15.5246 6.19261 15.6494 6.06775C15.3997 5.94288 15.2748 5.81801 15.0251 5.81801C14.6505 5.69314 14.6505 5.69314 14.5256 5.69314Z" fill="#232C65"/>
</svg>
