<svg width="32" height="32" viewBox="0 0 32 32" fill="none" xmlns="http://www.w3.org/2000/svg">
<path d="M29.4998 14.35H17.65V2.4999C17.65 1.58923 16.9108 0.85 15.9999 0.85C15.0892 0.85 14.35 1.58924 14.35 2.4999V14.35H2.4999C1.58924 14.35 0.85 15.0892 0.85 15.9999C0.85 16.9108 1.58923 17.65 2.4999 17.65H14.35V29.4998C14.35 30.4107 15.0892 31.15 15.9999 31.15C16.9108 31.15 17.65 30.4108 17.65 29.4998V17.65H29.4998C30.4108 17.65 31.15 16.9108 31.15 15.9999C31.15 15.0892 30.4107 14.35 29.4998 14.35Z" fill="#A0A0AE" stroke="#A0A0AE" stroke-width="0.3"/>
</svg>
