<svg width="12" height="12" viewBox="0 0 12 12" fill="none" xmlns="http://www.w3.org/2000/svg">
<path d="M7.27288 6.00029L11.1189 2.15422L11.9121 1.36108C12.0291 1.24408 12.0291 1.05395 11.9121 0.93695L11.0634 0.0883097C10.9464 -0.0286923 10.7563 -0.0286923 10.6393 0.0883097L6.00011 4.72752L1.3609 0.0879347C1.2439 -0.0290674 1.05377 -0.0290674 0.936767 0.0879347L0.0877516 0.936575C-0.0292505 1.05358 -0.0292505 1.24371 0.0877516 1.36071L4.72733 6.00029L0.0877516 10.6395C-0.0292505 10.7565 -0.0292505 10.9466 0.0877516 11.0636L0.936392 11.9123C1.05339 12.0293 1.24352 12.0293 1.36052 11.9123L6.00011 7.27306L9.84617 11.1191L10.6393 11.9123C10.7563 12.0293 10.9464 12.0293 11.0634 11.9123L11.9121 11.0636C12.0291 10.9466 12.0291 10.7565 11.9121 10.6395L7.27288 6.00029Z" fill="#65656C"/>
</svg>
