<svg width="20" height="21" viewBox="0 0 20 21" fill="none" xmlns="http://www.w3.org/2000/svg">
<path d="M4.67 13H2C0.9 13 0 13.9 0 15V20C0 20.55 0.45 21 1 21H4.67C5.22 21 5.67 20.55 5.67 20V14C5.67 13.45 5.22 13 4.67 13Z" fill="#8578E6"/>
<path d="M11.3302 9H8.66016C7.56016 9 6.66016 9.9 6.66016 11V20C6.66016 20.55 7.11016 21 7.66016 21H12.3302C12.8802 21 13.3302 20.55 13.3302 20V11C13.3302 9.9 12.4402 9 11.3302 9Z" fill="#8578E6"/>
<path d="M18.0001 16H15.3301C14.7801 16 14.3301 16.45 14.3301 17V20C14.3301 20.55 14.7801 21 15.3301 21H19.0001C19.5501 21 20.0001 20.55 20.0001 20V18C20.0001 16.9 19.1001 16 18.0001 16Z" fill="#8578E6"/>
<path d="M13.0095 3.85001C13.3195 3.54001 13.4395 3.17001 13.3395 2.85001C13.2395 2.53001 12.9295 2.30001 12.4895 2.23001L11.5295 2.07001C11.4895 2.07001 11.3995 2.00001 11.3795 1.96001L10.8495 0.900011C10.4495 0.090011 9.53945 0.090011 9.13945 0.900011L8.60945 1.96001C8.59945 2.00001 8.50945 2.07001 8.46945 2.07001L7.50945 2.23001C7.06945 2.30001 6.76945 2.53001 6.65945 2.85001C6.55945 3.17001 6.67945 3.54001 6.98945 3.85001L7.72945 4.60001C7.76945 4.63001 7.79945 4.75001 7.78945 4.79001L7.57945 5.71001C7.41945 6.40001 7.67945 6.71001 7.84945 6.83001C8.01945 6.95001 8.38945 7.11001 8.99945 6.75001L9.89945 6.22001C9.93945 6.19001 10.0695 6.19001 10.1095 6.22001L10.9995 6.75001C11.2795 6.92001 11.5095 6.97001 11.6895 6.97001C11.8995 6.97001 12.0495 6.89001 12.1395 6.83001C12.3095 6.71001 12.5695 6.40001 12.4095 5.71001L12.1995 4.79001C12.1895 4.74001 12.2195 4.63001 12.2595 4.60001L13.0095 3.85001Z" fill="#8578E6"/>
</svg>
