<svg width="16" height="20" viewBox="0 0 16 20" fill="none" xmlns="http://www.w3.org/2000/svg">
<path d="M13.8095 3.49V4.23L10.2695 2.18C8.92945 1.41 7.05945 1.41 5.72945 2.18L2.18945 4.24V3.49C2.18945 1.24 3.41945 0 5.66945 0H10.3295C12.5795 0 13.8095 1.24 13.8095 3.49Z" fill="#F290BA"/>
<path d="M13.84 5.97L13.7 5.9L12.34 5.12L9.52 3.49C8.66 2.99 7.34 2.99 6.48 3.49L3.66 5.11L2.3 5.91L2.12 6C0.37 7.18 0.25 7.4 0.25 9.29V13.81C0.25 15.7 0.37 15.92 2.16 17.13L6.48 19.62C6.91 19.88 7.45 19.99 8 19.99C8.54 19.99 9.09 19.87 9.52 19.62L13.88 17.1C15.64 15.92 15.75 15.71 15.75 13.81V9.29C15.75 7.4 15.63 7.18 13.84 5.97ZM10.79 11.5L10.18 12.25C10.08 12.36 10.01 12.57 10.02 12.72L10.08 13.68C10.12 14.27 9.7 14.57 9.15 14.36L8.26 14C8.12 13.95 7.89 13.95 7.75 14L6.86 14.35C6.31 14.57 5.89 14.26 5.93 13.67L5.99 12.71C6 12.56 5.93 12.35 5.83 12.24L5.21 11.5C4.83 11.05 5 10.55 5.57 10.4L6.5 10.16C6.65 10.12 6.82 9.98 6.9 9.86L7.42 9.06C7.74 8.56 8.25 8.56 8.58 9.06L9.1 9.86C9.18 9.99 9.36 10.12 9.5 10.16L10.43 10.4C11 10.55 11.17 11.05 10.79 11.5Z" fill="#F290BA"/>
</svg>
