<svg width="17" height="18" viewBox="0 0 17 18" fill="none" xmlns="http://www.w3.org/2000/svg">
<path d="M11.9071 11.2711L8.5 14.0625L5.09286 11.2711C4.43571 11.2992 0.5 11.816 0.5 16.3125C0.5 17.2441 1.26786 18 2.21429 18H14.7857C15.7321 18 16.5 17.2441 16.5 16.3125C16.5 11.816 12.5679 11.2992 11.9071 11.2711ZM7.92857 16.875H2.21429C1.9 16.875 1.64286 16.6219 1.64286 16.3125C1.64286 12.8109 4.64643 12.4488 4.72857 12.4348L7.92857 15.0574V16.875ZM15.3571 16.3125C15.3571 16.6219 15.1 16.875 14.7857 16.875H9.07143V15.0574L12.2714 12.4348C12.3536 12.4488 15.3571 12.8109 15.3571 16.3125ZM0.971429 3.51562L1.21429 3.58594V4.90781C0.964286 5.05547 0.785714 5.31211 0.785714 5.62148C0.785714 5.9168 0.95 6.16289 1.18214 6.31406L0.625 8.50781C0.564286 8.75039 0.7 9 0.896429 9H2.38929C2.58571 9 2.72143 8.75039 2.66071 8.50781L2.10357 6.31758C2.33571 6.16641 2.5 5.92031 2.5 5.625C2.5 5.31563 2.32143 5.05898 2.07143 4.91133V3.83906L3.73929 4.32422C3.5 4.90078 3.35714 5.52656 3.35714 6.1875C3.35714 8.98242 5.66071 11.25 8.5 11.25C11.3393 11.25 13.6429 8.98242 13.6429 6.1875C13.6429 5.52656 13.5 4.90078 13.2607 4.32422L16.0286 3.51562C16.6571 3.33281 16.6571 2.29219 16.0286 2.10938L9.10357 0.0878906C8.90357 0.028125 8.70357 0 8.5 0C8.29643 0 8.09643 0.028125 7.89643 0.0878906L0.971429 2.10938C0.342857 2.29219 0.342857 3.33281 0.971429 3.51562ZM8.5 10.125C6.29286 10.125 4.5 8.36016 4.5 6.1875C4.5 5.63555 4.63214 5.12227 4.84286 4.64766L7.89643 5.54063C8.425 5.69531 8.86786 5.61094 9.10357 5.54063L12.1571 4.64766C12.3679 5.12227 12.5 5.63906 12.5 6.1875C12.5 8.36016 10.7071 10.125 8.5 10.125ZM8.22143 1.16367C8.25 1.15664 8.48214 1.0793 8.77857 1.16367L14.4214 2.8125L8.77857 4.46133C8.75 4.46836 8.51786 4.5457 8.22143 4.46133L2.57857 2.8125L8.22143 1.16367Z" fill="#32313B"/>
</svg>
