<svg width="20" height="20" viewBox="0 0 20 20" fill="none" xmlns="http://www.w3.org/2000/svg">
<path d="M5.65055 18.91C5.62055 18.91 5.58055 18.93 5.55055 18.93C3.61055 17.97 2.03055 16.38 1.06055 14.44C1.06055 14.41 1.08055 14.37 1.08055 14.34C2.30055 14.7 3.56055 14.97 4.81055 15.18C5.03055 16.44 5.29055 17.69 5.65055 18.91Z" fill="#FFC06B"/>
<path d="M18.9391 14.45C17.9491 16.44 16.2991 18.05 14.2891 19.02C14.6691 17.75 14.9891 16.47 15.1991 15.18C16.4591 14.97 17.6991 14.7 18.9191 14.34C18.9091 14.38 18.9391 14.42 18.9391 14.45Z" fill="#FFC06B"/>
<path d="M19.0191 5.71C17.7591 5.33 16.4891 5.02 15.1991 4.8C14.9891 3.51 14.6791 2.23 14.2891 0.980003C16.3591 1.97 18.0291 3.64 19.0191 5.71Z" fill="#FFC06B"/>
<path d="M5.65047 1.09C5.29047 2.31 5.03047 3.55 4.82047 4.81C3.53047 5.01 2.25047 5.33 0.980469 5.71C1.95047 3.7 3.56047 2.05 5.55047 1.06C5.58047 1.06 5.62047 1.09 5.65047 1.09Z" fill="#FFC06B"/>
<path d="M13.4898 4.59C11.1698 4.33 8.82977 4.33 6.50977 4.59C6.75977 3.22 7.07977 1.85 7.52977 0.53C7.54977 0.45 7.53977 0.39 7.54977 0.31C8.33977 0.12 9.14977 0 9.99977 0C10.8398 0 11.6598 0.12 12.4398 0.31C12.4498 0.39 12.4498 0.45 12.4698 0.53C12.9198 1.86 13.2398 3.22 13.4898 4.59Z" fill="#FFC06B"/>
<path d="M4.59 13.49C3.21 13.24 1.85 12.92 0.53 12.47C0.45 12.45 0.39 12.46 0.31 12.45C0.12 11.66 0 10.85 0 10C0 9.16 0.12 8.34 0.31 7.56C0.39 7.55 0.45 7.55 0.53 7.53C1.86 7.09 3.21 6.76 4.59 6.51C4.34 8.83 4.34 11.17 4.59 13.49Z" fill="#FFC06B"/>
<path d="M20.0002 10C20.0002 10.85 19.8802 11.66 19.6902 12.45C19.6102 12.46 19.5502 12.45 19.4702 12.47C18.1402 12.91 16.7802 13.24 15.4102 13.49C15.6702 11.17 15.6702 8.83 15.4102 6.51C16.7802 6.76 18.1502 7.08 19.4702 7.53C19.5502 7.55 19.6102 7.56 19.6902 7.56C19.8802 8.35 20.0002 9.16 20.0002 10Z" fill="#FFC06B"/>
<path d="M13.4898 15.41C13.2398 16.79 12.9198 18.15 12.4698 19.47C12.4498 19.55 12.4498 19.61 12.4398 19.69C11.6598 19.88 10.8398 20 9.99977 20C9.14977 20 8.33977 19.88 7.54977 19.69C7.53977 19.61 7.54977 19.55 7.52977 19.47C7.08977 18.14 6.75977 16.79 6.50977 15.41C7.66977 15.54 8.82977 15.63 9.99977 15.63C11.1698 15.63 12.3398 15.54 13.4898 15.41Z" fill="#FFC06B"/>
<path d="M13.7633 13.7633C11.2622 14.0789 8.73776 14.0789 6.23667 13.7633C5.92111 11.2622 5.92111 8.73776 6.23667 6.23667C8.73776 5.92111 11.2622 5.92111 13.7633 6.23667C14.0789 8.73776 14.0789 11.2622 13.7633 13.7633Z" fill="#FFC06B"/>
</svg>
