<svg width="32" height="32" viewBox="0 0 32 32" fill="none" xmlns="http://www.w3.org/2000/svg">
<circle cx="15.9993" cy="16" r="14.3333" fill="#FFC06B" stroke="white" stroke-width="2"/>
<path d="M10.4588 17.5398L10.4589 17.5399L13.4578 20.5387C13.458 20.539 13.4582 20.5392 13.4585 20.5395C13.654 20.7358 13.9113 20.8329 14.1657 20.8329C14.4207 20.8329 14.6767 20.7355 14.8719 20.5418L14.8732 20.5405L22.2064 13.2073C22.597 12.8167 22.597 12.1835 22.2064 11.7929C21.8158 11.4023 21.1827 11.4025 20.792 11.7928L20.7919 11.7929L14.1664 18.4186L11.8733 16.1255C11.4827 15.7349 10.8495 15.7349 10.4589 16.1255C10.0683 16.5161 10.0685 17.1492 10.4588 17.5398Z" fill="white" stroke="white"/>
</svg>
