<svg width="21" height="21" viewBox="0 0 21 21" fill="none" xmlns="http://www.w3.org/2000/svg">
<path fill-rule="evenodd" clip-rule="evenodd" d="M3.44726 8.38236C5.38609 12.6066 8.83621 15.9651 13.1252 17.7849L13.1387 17.7906L13.9673 18.1601C15.0224 18.6305 16.2625 18.2964 16.9389 17.3596L18.3214 15.4453C18.4058 15.3283 18.3841 15.1657 18.2718 15.0752L15.8585 13.1271C15.7385 13.0302 15.5621 13.0527 15.4703 13.1767L14.5311 14.4449C14.3029 14.7528 13.8909 14.8598 13.542 14.7018C10.3349 13.2496 7.75781 10.671 6.30645 7.46211C6.1485 7.11287 6.25545 6.70068 6.56326 6.47244L7.83068 5.53263C7.95453 5.44081 7.97707 5.26429 7.88029 5.14424L5.93307 2.72917C5.84257 2.61692 5.68012 2.59512 5.56326 2.67954L3.63964 4.06903C2.6972 4.74978 2.3653 6.00108 2.84635 7.05984L3.4466 8.38095C3.44682 8.38143 3.44704 8.3819 3.44726 8.38236ZM12.483 19.2809C7.82284 17.3016 4.07455 13.6513 1.96786 9.0603L1.96659 9.05758L1.36508 7.73365C0.563325 5.96905 1.11648 3.88354 2.68722 2.74896L4.61084 1.35947C5.42889 0.76856 6.56598 0.921179 7.19949 1.70689L9.14668 4.12197C9.82423 4.96226 9.66639 6.19788 8.79955 6.8407L8.07329 7.37923C9.30006 9.76103 11.2444 11.7065 13.6247 12.934L14.163 12.2073C14.8054 11.3399 16.0403 11.182 16.8802 11.8599L19.2936 13.808C20.079 14.4421 20.2313 15.5802 19.6403 16.3987L18.2579 18.3132C17.1304 19.8745 15.0635 20.4312 13.3051 19.6473L12.483 19.2809Z" fill="#A0A0AE"/>
<path fill-rule="evenodd" clip-rule="evenodd" d="M3.71915 8.25719C5.62685 12.4136 9.0216 15.7182 13.2416 17.5087L13.2601 17.5166L14.0887 17.8861C15.014 18.2986 16.1016 18.0057 16.695 17.184L16.9382 17.3596C16.2617 18.2964 15.0216 18.6305 13.9666 18.1601L13.1379 17.7906L13.1244 17.7849C8.83546 15.9651 5.38533 12.6066 3.4465 8.38233L3.44585 8.38092L2.8456 7.0598C2.36454 6.00105 2.69644 4.74975 3.63888 4.06899L5.5625 2.6795C5.67937 2.59509 5.84181 2.61688 5.93231 2.72913L7.87953 5.1442C7.97631 5.26425 7.95377 5.44077 7.82992 5.53259L6.5625 6.4724C6.25469 6.70064 6.14774 7.11284 6.30569 7.46208C7.75705 10.671 10.3342 13.2496 13.5412 14.7018C13.8902 14.8598 14.3022 14.7528 14.5303 14.4448L15.4695 13.1767C15.5614 13.0527 15.7378 13.0301 15.8578 13.1271L18.271 15.0751C18.3833 15.1657 18.405 15.3283 18.3206 15.4453L16.9382 17.3596L16.695 17.184L18.0616 15.2916L15.6927 13.3794L14.7714 14.6234C14.4592 15.0448 13.8952 15.1914 13.4175 14.975C10.144 13.4928 7.51372 10.861 6.03235 7.5857C5.81623 7.10786 5.96251 6.54382 6.38381 6.23143L7.62732 5.30935L5.71595 2.93874L3.81455 4.31218C2.98792 4.90928 2.69672 6.00692 3.11873 6.93571L3.71854 8.25587M7.19873 1.70686L9.14592 4.12194C9.82347 4.96223 9.66563 6.19784 8.79879 6.84066L8.07253 7.37919C9.29931 9.761 11.2437 11.7065 13.624 12.934L14.1622 12.2073C14.8047 11.3398 16.0396 11.182 16.8794 11.8598L19.2928 13.8079C20.0783 14.442 20.2306 15.5802 19.6395 16.3987L18.2572 18.3131C17.1296 19.8745 15.0627 20.4312 13.3043 19.6473L12.4823 19.2809C7.82208 17.3015 4.07379 13.6513 1.9671 9.06026L1.96583 9.05755L1.36432 7.73361C0.562567 5.96902 1.11573 3.88351 2.68646 2.74892L4.61008 1.35943C5.42813 0.768524 6.56523 0.921143 7.19873 1.70686ZM1.09119 7.85771L1.6927 9.18164L1.6941 9.18468L1.6949 9.18638C3.83241 13.844 7.63488 17.5472 12.3625 19.5559L13.1821 19.9213C15.0703 20.763 17.2897 20.1652 18.5004 18.4888L19.8827 16.5743C20.5671 15.6266 20.3908 14.3088 19.4812 13.5745L17.0678 11.6264C16.0953 10.8414 14.6651 11.0242 13.9212 12.0287L13.5363 12.5483C11.3885 11.3849 9.6207 9.61605 8.45802 7.46683L8.97748 7.08164C9.98126 6.33727 10.164 4.90658 9.37946 3.93363L7.43228 1.51856C6.69868 0.608703 5.38181 0.431908 4.43442 1.11624L2.5108 2.50573C0.824244 3.72397 0.230389 5.96315 1.09119 7.85771Z" fill="#A0A0AE"/>
</svg>
