<svg width="34" height="30" viewBox="0 0 34 30" fill="none" xmlns="http://www.w3.org/2000/svg">
<path d="M32.2917 27.8571H31.25V25.1786C31.25 24.291 30.5505 23.5714 29.6875 23.5714H27.0833V11.7857H25V23.5714H20.8333V11.7857H18.75V23.5714H14.5833V11.7857H12.5V23.5714H8.33333V11.7857H6.25V23.5714H3.64583C2.78288 23.5714 2.08333 24.291 2.08333 25.1786V27.8571H1.04167C0.466341 27.8571 2.47296e-09 28.3368 2.47296e-09 28.9286V29.4643C2.47296e-09 29.6064 0.0548734 29.7426 0.152549 29.8431C0.250224 29.9436 0.3827 30 0.520833 30H32.8125C32.9506 30 33.0831 29.9436 33.1808 29.8431C33.2785 29.7426 33.3333 29.6064 33.3333 29.4643V28.9286C33.3333 28.3368 32.867 27.8571 32.2917 27.8571ZM4.16667 25.7143H29.1667V27.8571H4.16667V25.7143ZM32.8299 6.96429L17.6549 0.164934C17.0134 -0.0549778 16.3199 -0.0549778 15.6784 0.164934L0.50345 6.96429C0.355395 7.02221 0.22796 7.12507 0.138045 7.25921C0.048131 7.39334 -1.25985e-05 7.55243 2.47296e-09 7.71536V8.30357C2.47296e-09 8.74734 0.349805 9.10714 0.78125 9.10714H2.08333V9.91072C2.08333 10.3545 2.43314 10.7143 2.86458 10.7143H30.4687C30.9002 10.7143 31.25 10.3545 31.25 9.91072V9.10714H32.5521C32.9835 9.10714 33.3333 8.74734 33.3333 8.30357V7.71536C33.3333 7.38174 33.133 7.08288 32.8299 6.96429ZM29.1667 8.57143H4.16667V7.66031L16.4025 2.17788C16.5757 2.13121 16.7576 2.13121 16.9308 2.17788L29.1667 7.66031V8.57143Z" fill="#32313B"/>
</svg>
