<svg width="16" height="12" viewBox="0 0 16 12" fill="none" xmlns="http://www.w3.org/2000/svg">
<path d="M10.25 6C10.25 7.24264 9.24264 8.25 8 8.25C6.75736 8.25 5.75 7.24264 5.75 6C5.75 4.75736 6.75736 3.75 8 3.75C9.24264 3.75 10.25 4.75736 10.25 6Z" fill="white"/>
<path d="M15.4208 5.66459C13.8022 2.42726 10.9273 0.75 8 0.75C5.07266 0.75 2.19784 2.42726 0.57918 5.66459C0.473607 5.87574 0.473607 6.12426 0.57918 6.33541C2.19784 9.57274 5.07266 11.25 8 11.25C10.9273 11.25 13.8022 9.57274 15.4208 6.33541C15.5264 6.12426 15.5264 5.87574 15.4208 5.66459ZM8 9.75C5.77341 9.75 3.49854 8.53441 2.09724 6C3.49854 3.46558 5.77341 2.25 8 2.25C10.2266 2.25 12.5015 3.46558 13.9028 6C12.5015 8.53441 10.2266 9.75 8 9.75Z" fill="white"/>
</svg>
