<svg width="13" height="12" viewBox="0 0 13 12" fill="none" xmlns="http://www.w3.org/2000/svg">
<path d="M3.60352 11.1812V3.89502H5.12402V9.83643H7.70801C8.58105 9.84229 9.2959 9.59033 9.85254 9.08057C10.415 8.56494 10.6963 7.85889 10.6963 6.9624V0.818848H12.208V6.93604C12.2139 7.80322 12.0322 8.55615 11.6631 9.19482C11.2998 9.82764 10.7754 10.3169 10.0898 10.6626C9.41016 11.0083 8.5957 11.1812 7.64648 11.1812H3.60352ZM0 11.1812V0.818848H8.61328V6.03076C8.61328 6.30029 8.59863 6.56104 8.56934 6.81299C8.5459 7.06494 8.50488 7.30811 8.44629 7.54248C8.39355 7.77686 8.32324 8.0083 8.23535 8.23682L6.9082 8.44775L6.8291 8.37744C6.91699 8.04932 6.98145 7.70068 7.02246 7.33154C7.06934 6.95654 7.09277 6.54932 7.09277 6.10986V2.16357H1.52051V11.1812H0Z" fill="#32313B"/>
</svg>
